# xmcd CD database file
#
# Track frame offsets:
#	150
#	19319
#	37136
#	51792
#	68946
#	90853
#	110471
#	128917
#	145532
#	163249
#	182818
#	202889
#	224389
#	246390
#	265674
#	283200
#	298005
#	314598
#
# Disc length: 4450 seconds
#
# Revision: 0
# Processed by: cddbd v1.5.2PL0 Copyright (c) Steve Scherf et al.
# Submitted via: CDex 1.70beta2
#
DISCID=19116012
DTITLE=clifford brown - jazz
DYEAR=2010
DGENRE=Jazz
TTITLE0=bellarosa
TTITLE1=carvin o clock
TTITLE2=cooking
TTITLE3=brownie speaks
TTITLE4=de-dah
TTITLE5=yoygoto my head
TTITLE6=carvin alto
TTITLE7=capri
TTITLE8=lover man
TTITLE9=turnpike
TTITLE10=sketch one
TTITLE11=it could happen to you
TTITLE12=get happy
TTITLE13=daahoud
TTITLE14=finger keepers
TTITLE15=joy spring
TTITLE16=gone with wind
TTITLE17=bones of jones
EXTD=YEAR: 2010
EXTT0=
EXTT1=
EXTT2=
EXTT3=
EXTT4=
EXTT5=
EXTT6=
EXTT7=
EXTT8=
EXTT9=
EXTT10=
EXTT11=
EXTT12=
EXTT13=
EXTT14=
EXTT15=
EXTT16=
EXTT17=
PLAYORDER=
